<svg xmlns="http://www.w3.org/2000/svg" xmlns:xlink="http://www.w3.org/1999/xlink" width="500" zoomAndPan="magnify" viewBox="0 0 375 374.999991" height="500" preserveAspectRatio="xMidYMid meet" version="1.0"><defs><clipPath id="28211cebfc"><path d="M 51 54 L 327.867188 54 L 327.867188 319 L 51 319 Z M 51 54 " clip-rule="nonzero"/></clipPath></defs><g clip-path="url(#28211cebfc)"><path fill="#000000" d="M 324.03125 99.960938 C 323.347656 99.585938 309.167969 91.835938 292.804688 91.574219 C 293.582031 75.339844 286.804688 60.785156 286.472656 60.085938 C 285.257812 57.523438 282.371094 56.214844 279.636719 56.988281 C 278.890625 57.203125 263.40625 61.707031 251.722656 72.957031 C 240.75 60.851562 225.578125 55.289062 224.847656 55.027344 C 222.175781 54.066406 219.1875 55.183594 217.804688 57.667969 C 217.230469 58.703125 203.773438 83.28125 212.015625 105.183594 C 214.9375 112.941406 220.117188 119.128906 225.632812 123.949219 C 223.101562 124.523438 220.601562 125.300781 218.183594 126.355469 C 207.835938 130.875 199.824219 139.433594 195.855469 150.136719 C 182.90625 139.160156 165.78125 138.082031 151.761719 145.929688 C 148.179688 147.855469 144.878906 150.214844 142.003906 152.898438 C 141.207031 153.625 140.339844 154.191406 139.445312 154.6875 C 140.171875 149.226562 140.738281 139.582031 137.785156 130.484375 C 138.238281 121.277344 137.867188 97.28125 123.007812 85.824219 C 105.089844 72.003906 77.226562 79.460938 76.050781 79.785156 C 73.558594 80.46875 71.824219 82.714844 71.789062 85.292969 C 71.769531 86.511719 71.582031 115.308594 89.503906 129.132812 C 101.152344 138.117188 115.835938 139.695312 124.703125 139.695312 C 125.910156 139.695312 126.988281 139.664062 127.957031 139.617188 C 128.875 146.015625 128.113281 152.199219 127.652344 154.96875 C 126.550781 154.429688 125.484375 153.777344 124.515625 152.902344 C 114.222656 143.496094 101.828125 139.378906 89.675781 141.308594 C 57.382812 146.339844 47.261719 185.46875 52.371094 218.089844 C 58.019531 254.082031 81.378906 289.792969 108.3125 289.789062 C 115.777344 289.789062 122.902344 287.152344 129.324219 281.492188 C 131.632812 279.398438 134.902344 279.386719 137.183594 281.371094 C 142.042969 285.792969 147.535156 288.503906 153.527344 289.429688 C 156.34375 289.855469 159.183594 289.851562 162.027344 289.488281 C 158.6875 310.359375 160.480469 315.507812 165.328125 317.773438 C 170.4375 319.992188 175.542969 315.609375 179.4375 311.652344 C 201.023438 290.398438 254.097656 211.078125 270.632812 185.734375 C 277.769531 174.453125 278.992188 158.609375 271.519531 144.726562 C 279.269531 145.769531 287.011719 145.5 294.671875 142.628906 C 316.609375 134.398438 326.277344 108.105469 326.679688 106.988281 C 327.640625 104.3125 326.519531 101.339844 324.03125 99.960938 Z M 277.867188 69.949219 C 281.351562 80.277344 283.023438 93.148438 278.496094 103.101562 C 274.035156 112.925781 263.351562 120.179688 253.289062 124.367188 C 253.226562 124.394531 253.164062 124.417969 253.101562 124.445312 C 253.070312 124.347656 253.039062 124.253906 253.003906 124.15625 C 250.105469 115.464844 248.566406 105.296875 250.742188 96.429688 C 253.898438 83.589844 265.601562 75.03125 277.867188 69.949219 Z M 222.890625 101.105469 C 218.390625 89.15625 222.777344 75.226562 225.742188 68.066406 C 230.722656 70.53125 238.550781 75.144531 244.265625 82.054688 C 244.242188 82.089844 244.230469 82.128906 244.207031 82.160156 C 241.464844 86.621094 239.835938 91.164062 238.910156 96.320312 C 237.511719 104.109375 238.070312 112.039062 239.753906 119.707031 C 239.789062 119.859375 239.816406 120.023438 239.847656 120.171875 C 233.414062 116.007812 226.117188 109.675781 222.890625 101.105469 Z M 96.601562 119.953125 C 86.851562 112.429688 84.300781 97.515625 83.636719 90 C 92.125 88.566406 106.761719 87.949219 115.90625 95.003906 C 121.253906 99.121094 123.945312 106.539062 125.234375 113.914062 C 123.945312 113.113281 122.566406 112.375 121.050781 111.730469 C 118.089844 110.480469 114.6875 111.855469 113.433594 114.796875 C 112.179688 117.746094 113.554688 121.152344 116.503906 122.40625 C 119.605469 123.722656 121.925781 125.714844 123.660156 128.082031 C 116.40625 127.972656 105.21875 126.597656 96.601562 119.953125 Z M 155.285156 277.96875 C 151.609375 277.402344 148.152344 275.664062 144.917969 272.71875 C 138.058594 266.742188 128.210938 266.816406 121.574219 272.855469 C 118.363281 275.683594 114.882812 277.402344 111.222656 277.96875 C 91.984375 280.984375 69.378906 251.5625 63.84375 216.292969 C 59.871094 190.945312 66.230469 156.703125 91.480469 152.761719 C 100.953125 151.25 109.640625 155.03125 116.703125 161.480469 C 126.179688 170.039062 140.421875 170.027344 149.882812 161.417969 C 152.078125 159.371094 154.5625 157.59375 157.351562 156.09375 C 168.839844 149.675781 182.65625 151.558594 192.21875 162.8125 C 183.441406 194.871094 170.5 244.707031 164.210938 277.222656 C 161.171875 278.148438 158.175781 278.398438 155.285156 277.96875 Z M 260.863281 179.464844 C 260.738281 179.660156 254.761719 188.777344 245.882812 201.996094 L 236.21875 197.621094 C 233.304688 196.289062 229.859375 197.585938 228.53125 200.503906 C 227.207031 203.421875 228.5 206.859375 231.421875 208.179688 L 239.304688 211.75 C 233.675781 220.0625 227.34375 229.316406 220.796875 238.71875 L 218.097656 237.492188 C 215.183594 236.160156 211.738281 237.460938 210.410156 240.378906 C 209.085938 243.292969 210.378906 246.730469 213.300781 248.054688 L 214.019531 248.378906 C 204.46875 261.914062 183.726562 290.71875 172.089844 302.589844 C 172.875 292.535156 176.082031 276.667969 178.210938 266.714844 L 179.03125 267.085938 C 179.808594 267.441406 180.625 267.609375 181.429688 267.609375 C 183.636719 267.609375 185.746094 266.34375 186.71875 264.203125 C 188.042969 261.285156 186.75 257.847656 183.832031 256.527344 L 180.773438 255.144531 C 183.765625 241.953125 186.882812 229.210938 190.023438 216.773438 L 193.273438 218.246094 C 196.171875 219.566406 199.628906 218.292969 200.960938 215.359375 C 202.285156 212.445312 200.992188 209.007812 198.070312 207.683594 L 192.933594 205.359375 C 198.878906 182.300781 202.925781 167.75 206.378906 155.035156 C 209.027344 146.972656 215.027344 140.390625 222.839844 136.980469 C 230.644531 133.574219 239.558594 133.644531 247.308594 137.1875 C 264.265625 144.820312 269.585938 165.617188 260.863281 179.464844 Z M 290.589844 131.777344 C 282.003906 134.996094 272.429688 133.679688 265.054688 131.589844 C 275.015625 126.183594 284.390625 118.203125 289.074219 107.890625 C 289.765625 106.367188 290.351562 104.816406 290.835938 103.261719 C 290.84375 103.230469 290.859375 103.199219 290.867188 103.171875 C 299.84375 102.957031 308.457031 105.765625 313.605469 107.886719 C 310.164062 114.828125 302.550781 127.289062 290.589844 131.777344 Z M 290.589844 131.777344 " fill-opacity="1" fill-rule="nonzero"/></g><path fill="#000000" d="M 90.425781 223.230469 C 90.074219 220.054688 87.214844 217.796875 84.03125 218.105469 C 80.84375 218.449219 78.535156 221.3125 78.882812 224.492188 C 78.96875 225.320312 81.25 244.875 96.808594 259.875 C 99.117188 262.097656 102.792969 262.035156 105.023438 259.730469 C 107.25 257.425781 107.183594 253.753906 104.878906 251.53125 C 92.472656 239.574219 90.460938 223.496094 90.425781 223.230469 Z M 90.425781 223.230469 " fill-opacity="1" fill-rule="nonzero"/></svg>