<svg xmlns="http://www.w3.org/2000/svg" xmlns:xlink="http://www.w3.org/1999/xlink" width="500" zoomAndPan="magnify" viewBox="0 0 375 374.999991" height="500" preserveAspectRatio="xMidYMid meet" version="1.0"><path fill="#37b24d" d="M 323.789062 99.996094 C 323.105469 99.621094 308.9375 91.863281 292.589844 91.601562 C 293.363281 75.355469 286.59375 60.792969 286.261719 60.09375 C 285.050781 57.527344 282.164062 56.214844 279.433594 56.992188 C 278.6875 57.203125 263.214844 61.714844 251.542969 72.972656 C 240.582031 60.859375 225.421875 55.289062 224.691406 55.027344 C 222.019531 54.066406 219.039062 55.183594 217.65625 57.667969 C 217.082031 58.707031 203.636719 83.304688 211.871094 105.222656 C 214.789062 112.984375 219.964844 119.179688 225.476562 124 C 222.945312 124.574219 220.449219 125.351562 218.035156 126.410156 C 207.695312 130.933594 199.691406 139.496094 195.726562 150.210938 C 182.789062 139.222656 165.675781 138.148438 151.671875 146 C 148.09375 147.925781 144.792969 150.285156 141.921875 152.972656 C 141.125 153.699219 140.257812 154.265625 139.363281 154.761719 C 140.089844 149.300781 140.65625 139.648438 137.707031 130.542969 C 138.160156 121.328125 137.789062 97.3125 122.941406 85.847656 C 105.039062 72.019531 77.199219 79.480469 76.027344 79.804688 C 73.535156 80.492188 71.804688 82.738281 71.765625 85.320312 C 71.75 86.535156 71.5625 115.355469 89.464844 129.1875 C 101.105469 138.179688 115.773438 139.757812 124.632812 139.757812 C 125.839844 139.757812 126.917969 139.726562 127.886719 139.683594 C 128.804688 146.082031 128.042969 152.273438 127.582031 155.046875 C 126.480469 154.503906 125.414062 153.851562 124.449219 152.976562 C 114.164062 143.5625 101.78125 139.445312 89.636719 141.375 C 57.371094 146.410156 47.261719 185.566406 52.367188 218.210938 C 58.011719 254.234375 81.351562 289.96875 108.257812 289.964844 C 115.71875 289.964844 122.835938 287.328125 129.25 281.660156 C 131.558594 279.566406 134.824219 279.554688 137.105469 281.539062 C 141.960938 285.96875 147.449219 288.679688 153.433594 289.605469 C 156.25 290.03125 159.085938 290.027344 161.929688 289.664062 C 158.589844 310.550781 160.382812 315.703125 165.222656 317.972656 C 170.328125 320.1875 175.429688 315.804688 179.324219 311.847656 C 200.890625 290.574219 253.917969 211.195312 270.4375 185.835938 C 277.570312 174.542969 278.789062 158.6875 271.324219 144.792969 C 279.066406 145.839844 286.804688 145.570312 294.453125 142.695312 C 316.375 134.460938 326.03125 108.144531 326.433594 107.03125 C 327.394531 104.351562 326.273438 101.375 323.789062 99.996094 Z M 277.664062 69.960938 C 281.148438 80.300781 282.816406 93.179688 278.292969 103.140625 C 273.835938 112.96875 263.160156 120.226562 253.109375 124.421875 C 253.046875 124.445312 252.984375 124.472656 252.921875 124.496094 C 252.890625 124.398438 252.859375 124.308594 252.824219 124.207031 C 249.929688 115.511719 248.390625 105.335938 250.566406 96.460938 C 253.714844 83.613281 265.410156 75.046875 277.664062 69.960938 Z M 222.734375 101.140625 C 218.242188 89.183594 222.621094 75.242188 225.585938 68.078125 C 230.5625 70.542969 238.382812 75.160156 244.089844 82.078125 C 244.070312 82.109375 244.054688 82.148438 244.035156 82.183594 C 241.292969 86.648438 239.667969 91.195312 238.742188 96.351562 C 237.34375 104.144531 237.902344 112.085938 239.585938 119.757812 C 239.621094 119.90625 239.648438 120.074219 239.679688 120.222656 C 233.253906 116.054688 225.960938 109.71875 222.734375 101.140625 Z M 96.558594 120.003906 C 86.816406 112.476562 84.269531 97.550781 83.601562 90.027344 C 92.085938 88.589844 106.710938 87.976562 115.847656 95.035156 C 121.1875 99.15625 123.875 106.578125 125.164062 113.957031 C 123.875 113.160156 122.5 112.417969 120.988281 111.773438 C 118.027344 110.523438 114.628906 111.898438 113.375 114.84375 C 112.121094 117.792969 113.496094 121.199219 116.441406 122.457031 C 119.542969 123.773438 121.859375 125.769531 123.59375 128.140625 C 116.34375 128.027344 105.167969 126.652344 96.558594 120.003906 Z M 155.1875 278.132812 C 151.515625 277.566406 148.0625 275.828125 144.832031 272.882812 C 137.980469 266.898438 128.140625 266.972656 121.507812 273.019531 C 118.300781 275.847656 114.824219 277.570312 111.167969 278.132812 C 91.945312 281.152344 69.359375 251.707031 63.832031 216.414062 C 59.859375 191.046875 66.214844 156.78125 91.441406 152.835938 C 100.90625 151.324219 109.585938 155.109375 116.644531 161.5625 C 126.113281 170.125 140.339844 170.113281 149.792969 161.5 C 151.988281 159.449219 154.46875 157.671875 157.253906 156.171875 C 168.730469 149.75 182.535156 151.632812 192.089844 162.894531 C 183.324219 194.976562 170.390625 244.851562 164.109375 277.386719 C 161.070312 278.316406 158.078125 278.566406 155.1875 278.132812 Z M 260.675781 179.558594 C 260.550781 179.753906 254.578125 188.875 245.707031 202.109375 L 236.054688 197.726562 C 233.140625 196.394531 229.699219 197.695312 228.375 200.613281 C 227.050781 203.535156 228.34375 206.972656 231.261719 208.296875 L 239.136719 211.871094 C 233.511719 220.183594 227.1875 229.449219 220.644531 238.855469 L 217.945312 237.628906 C 215.035156 236.296875 211.59375 237.597656 210.265625 240.519531 C 208.941406 243.4375 210.234375 246.875 213.152344 248.199219 L 213.875 248.527344 C 204.332031 262.070312 183.605469 290.894531 171.980469 302.777344 C 172.761719 292.714844 175.96875 276.832031 178.097656 266.875 L 178.917969 267.246094 C 179.695312 267.601562 180.507812 267.765625 181.3125 267.765625 C 183.519531 267.765625 185.625 266.5 186.597656 264.359375 C 187.921875 261.441406 186.628906 258 183.710938 256.679688 L 180.65625 255.292969 C 183.648438 242.09375 186.757812 229.34375 189.898438 216.894531 L 193.144531 218.367188 C 196.042969 219.691406 199.496094 218.414062 200.824219 215.480469 C 202.148438 212.5625 200.855469 209.125 197.9375 207.800781 L 192.808594 205.472656 C 198.746094 182.398438 202.789062 167.835938 206.238281 155.113281 C 208.882812 147.042969 214.878906 140.457031 222.6875 137.042969 C 230.484375 133.632812 239.386719 133.703125 247.132812 137.25 C 264.074219 144.886719 269.390625 165.699219 260.675781 179.558594 Z M 290.375 131.832031 C 281.796875 135.054688 272.230469 133.742188 264.863281 131.648438 C 274.816406 126.238281 284.179688 118.25 288.863281 107.933594 C 289.554688 106.40625 290.136719 104.851562 290.621094 103.296875 C 290.628906 103.269531 290.644531 103.238281 290.65625 103.207031 C 299.621094 102.992188 308.226562 105.804688 313.371094 107.925781 C 309.933594 114.875 302.324219 127.34375 290.375 131.832031 Z M 290.375 131.832031 " fill-opacity="1" fill-rule="nonzero"/><path fill="#37b24d" d="M 90.390625 223.355469 C 90.039062 220.179688 87.179688 217.917969 84 218.230469 C 80.8125 218.570312 78.507812 221.4375 78.855469 224.621094 C 78.941406 225.449219 81.21875 245.015625 96.765625 260.027344 C 99.070312 262.25 102.742188 262.191406 104.972656 259.886719 C 107.199219 257.578125 107.132812 253.90625 104.828125 251.679688 C 92.433594 239.714844 90.421875 223.625 90.390625 223.355469 Z M 90.390625 223.355469 " fill-opacity="1" fill-rule="nonzero"/></svg>